<svg xmlns="http://www.w3.org/2000/svg" width="1280" height="1253.333" viewBox="0 0 960 940"><path d="M446 84.6c-17.5.7-34.6 2.5-51.8 5.3-9.7 1.7-23.1 3.7-29.7 4.6-49 6.6-104.7 23-156.5 46-16.3 7.2-43.6 21.4-50.8 26.5-11.4 7.8-10.7 3.7-10.7 65.7 0 61.8-.5 58.6 8.7 53.7 2.9-1.6 13-8.6 22.4-15.6 21.6-16 37.3-26.5 54.4-36.3 76.4-44 171.5-74.2 272-86.4 57.4-7 121.7-7.9 176.5-2.5 44.7 4.4 71.8 10.1 103.9 21.8 23.4 8.6 18 .7-9.4-13.6-73.8-38.5-150.9-59.9-242.5-67.3-18.1-1.5-68.5-2.6-86.5-1.9"/><path d="M573 162.3c-.3.3-7.3.7-15.6 1.1s-16.2.8-17.5 1.1c-1.3.2-6 .6-10.4 1-58.4 4.7-133.3 21.1-188.6 41.4-31.9 11.7-76.7 32.7-109.4 51.3-25.6 14.6-67.4 42.7-75.7 50.9-7.3 7.3-7.9 10.3-8.2 42.9-.2 15.1 0 33.9.3 41.7.6 13.9.7 14.3 3.4 17 2.7 2.8 2.8 2.8 18.2 3.1 23.9.5 22.8 2.1 23-34.2l.1-27.3 2.7-5.5c4.9-10 14.3-17.8 55.3-45.9 79.6-54.6 176.6-94.3 280.8-115 30.3-6 65-11.2 89.6-13.4 3.6-.3 8.1-.8 10-1s7.6-.7 12.5-1c18.5-1.1 24.5-1.7 25-2.5.9-1.5-3.3-2.2-25.5-4.5-6.8-.7-69.4-1.7-70-1.2M766.1 206.8c-1 1.8-1.7 32.6-2.6 112.2-.3 25-.8 59.8-1.1 77.2-.3 17.5-.3 32.6.1 33.7 1 3.4 5.7 4.3 21.3 4.5 18.5.1 21.6-.5 23.2-4.4 1.6-3.8 1.6-2.1.6-113-.9-108.8.2-98.6-11.9-104.4-14.6-6.9-27.6-9.5-29.6-5.8M114 431.7c0 1.8.6 2.3 2.5 2.3 1.8 0 2.6.7 3.2 2.7.8 2.8 1 28.2.5 69.8l-.2 23-3.1 1.7c-1.8 1.1-2.9 2.4-2.7 3.4.3 1.4 5.9 1.5 53.1 1.5 51.9-.1 52.9 0 53.4 1.9.3 1.3 1.4 2 2.9 2h2.4v-36h-2.3c-1.6 0-2.6.9-3.4 3l-1.1 3-33.9-.2-33.8-.3-.2-36c-.1-19.8.1-36.5.5-37 .4-.6 2-1.9 3.6-2.9 1.8-1.2 2.5-2.1 1.8-2.8-.6-.6-9.7-1-22.1-1.1l-21.1-.2zM337 444.5v2.5h-47c-28.3 0-47 .4-47 .9 0 1.5 3 4.1 4.6 4.1 1.2 0 1.4 5.9 1.4 38.9 0 38.1 0 39-2 39.6s-4.6 4.2-3.7 5.2c.3.2 21.4.4 47 .3 40.9-.1 46.5.1 47 1.5.4.8 1.6 1.5 2.7 1.5 1.9 0 2-.6 2-13.5 0-12.4-.1-13.5-1.8-13.5-1 0-2.9 1.1-4.2 2.5l-2.4 2.6-28.1-.3-28-.3-.2-8.7-.1-8.7 3.3-.7c1.8-.3 9.8-.4 17.8-.2 13.5.3 14.7.5 16.9 2.5 4.4 4.2 4.8 3.3 4.8-11.6 0-13.2-.1-13.9-1.9-13.4-1.1.3-2.1 1.3-2.4 2.4-.5 1.8-1.7 1.9-19 1.9-16.8 0-18.6-.2-19.1-1.8-1.4-5-1.6-8.1-.7-10.5l1.1-2.7 28.7.2c28.8.3 28.8.3 29.8 2.5.6 1.4 1.8 2.3 3.2 2.3 2.3 0 2.3-.1 2.3-14v-14h-2.5c-2 0-2.5.5-2.5 2.5M404.5 446c-13.2 1.9-22.7 6.2-30.4 13.5-11.3 10.7-15.6 27.3-11.6 44.3 3.6 15.1 11.6 23.7 27.1 29.3 8.4 3.1 32.2 3.8 44.8 1.5 16.4-3.1 33.6-9.6 35-13.1.9-2.4.8-2.5-1.4-2.5-4.2 0-5.2-3.9-4.8-18.2l.3-13.3-21.1-.3-21.2-.2-1.6-2.5c-.9-1.4-2.3-2.5-3.1-2.5-2.3 0-2.2 24.5.1 25.4 1 .4 2.3-.3 3.6-1.9 1.8-2.3 2.6-2.5 9.4-2.5h7.4v10.8l-4.7 1.9c-7.5 2.8-20.2 2.5-27.4-.8-11.3-5.3-16.4-13.7-15.7-25.8.3-5.8.9-7.8 3.3-11.3 7-10 25.2-14.5 40.4-9.9 5.9 1.8 7.5 2.8 9.4 5.6 3.5 5.4 4.5 5.2 7.6-1.8 7.7-17 9.2-25.1 4.1-22-2.7 1.8-4.4 1.7-16.3-1.2-11-2.7-24.8-3.7-33.2-2.5M662.5 446.1c-9.1 1.3-21.9 5.7-28.3 9.9-7.1 4.5-11.7 9.8-15.1 17-2.3 5-2.6 6.7-2.6 17.5 0 10.2.3 12.8 2.3 17.8 3 7.4 11.3 16.4 18.9 20.5 10.4 5.5 20 7.6 35.3 7.6 15.2 0 21.5-1.1 34.2-6 5.4-2.1 10.5-3.4 13.3-3.4 3 0 4.5-.4 4.5-1.3 0-1.8-9-16-14.5-23-4.8-6.1-7.5-7.3-7.5-3.3 0 10.3-25 18.3-41.4 13.1-6.9-2.2-14.9-9-16.6-14.1-6.7-20.1 14-34.8 40.6-28.9 10.6 2.3 13.3 3.9 15.2 8.6 1 2.6 2.1 3.9 3.1 3.7 1.7-.3 15.1-26 15.1-29 0-2.2-1.9-3.3-3.3-1.9-1.8 1.8-6.5 1.3-18.7-2-12.4-3.3-24.1-4.3-34.5-2.8M518 448.5c0 .9.7 1.8 1.5 2.1.8.4 1.5 1.2 1.5 1.8 0 .7-4.9 12.2-10.8 25.7-6 13.4-13.5 30.2-16.6 37.4-3.2 7.1-6.9 14.2-8.3 15.7-4.4 4.6-3.2 5.1 13.2 5 12.9-.1 15-.3 15.3-1.7.2-.9-.1-2.2-.8-3-.8-1-.3-2.7 2.1-7.4l3.2-6.1h44.5l2.2 5.1c1.6 3.9 2 6.3 1.6 9.3l-.6 4.1 16.5-.1c9.1 0 16.8-.4 17.2-.7.3-.4-1-3.1-3-5.9-4.1-6.1-19.3-36.9-29.6-60.2-5.2-12-6.7-16.4-6-17.7 2.6-4.9 2.4-4.9-21.1-4.9-19.1 0-22 .2-22 1.5m29.8 39 6.9 15-14 .3c-7.7.1-14.2 0-14.6-.3-.8-.9 2.4-9.3 8-21.3 2.9-6 5.4-10.1 5.9-9.6.4.5 3.9 7.6 7.8 15.9M734 448.6c0 .8 1.5 2.1 3.3 2.9 2.6 1 7.3 6.8 20.8 25.1 9.6 13 17.9 24.6 18.5 25.8 3.2 6 2.6 25.4-.8 28.6-1.1 1-1.8 2.6-1.6 3.5.3 1.4 2.4 1.6 17.8 1.6s17.5-.2 17.8-1.6c.2-.9-.6-2.6-1.8-3.7-2.1-1.9-2.2-2.7-1.8-15.2l.3-13.1L814 491c20.2-31 26.1-38.9 29.2-39.3 1.4-.3 1.8-.9 1.8-3.2 0-1.3-2.9-1.5-20-1.5-19 0-20 .1-20 1.9 0 1 .7 2.2 1.6 2.5.8.3 1.4 1.2 1.2 1.9-.4 1.6-15.1 22.7-15.9 22.7-.5 0-17-21.5-17.7-23.2-.2-.4.8-1.2 2.2-1.8 1.4-.5 2.6-1.6 2.6-2.5 0-1.3-3-1.5-22.5-1.5-19.7 0-22.5.2-22.5 1.6M631.2 570.4c-4.2 2.1-5.6 3.4-7.2 6.8-2.5 5.6-2.5 8.3.2 12.6 1.2 2 1.8 3.7 1.2 3.9-9.8 3.3-14.4 16.3-9.1 25.8 1.6 3 3.7 4.8 8 6.9 5.2 2.6 7 2.9 15 3 7.8 0 10.2-.4 15.9-2.8l6.8-2.7 2.9 2c3.9 2.8 12.3 4.4 17.1 3.2.3 0 .5-1.3.4-2.9-.1-1.5-.2-5-.3-7.7-.1-4.9-.2-5-3.2-5-4.2 0-6.3-3-4.6-6.5 1-2 2-2.5 4.8-2.4l3.4.1v-9.9c0-8.4-.2-9.8-1.6-9.8-2.9 0-11.2 6.3-14.9 11.2l-3.5 4.8-2.4-2.5-2.4-2.4 3.6-4.6c4.6-6 5.4-9.5 3-14.3-2.7-5.5-9.5-8.6-19.8-9-6.8-.2-8.8.1-13.3 2.2m17.6 9.2c3.8 2.6 2.4 8.6-2.3 9.8-3.1.8-8.1-1.6-9-4.3-.3-1.2.1-3.1 1.1-4.6 1.9-2.9 6.7-3.4 10.2-.9m-4.3 22.4c2.4 0 7.5 5.1 7.5 7.5 0 6.1-12.3 9-16.9 4.1-3.5-3.7-2.6-8.6 1.9-10.9 1.9-.9 4.1-1.5 4.8-1.2.8.3 2 .5 2.7.5M66 577.5c-1 1.3-5.2 1.5-25.6 1.5-13.5 0-24.4.4-24.4.9s.7 2.2 1.5 3.7c1.2 2.3 1.4 6.7 1.2 22.2-.2 17.2-.4 19.4-1.9 20.3-2.5 1.4-2.2 3.9.5 4 6.4.3 19.8.1 20.2-.2.2-.3-.2-2.3-1-4.6-.9-2.7-1.2-5.9-.8-9.2l.6-5.1h9.1c6.3.1 9.7.5 11 1.5 1 .8 2.3 1.2 2.7.9.5-.3.9-4.1.9-8.6 0-7.9 0-8-2.2-7.2-1.3.4-6.7.9-12 1.1l-9.8.4v-3.9c0-2.3.5-4.2 1.3-4.5.7-.3 6.9-.5 13.8-.6 11.4-.2 12.7 0 14.4 1.9 1 1.1 2.2 2 2.7 2 .4 0 .8-4.1.8-9 0-8.9-.6-10.4-3-7.5M878.6 577.5c-.5 1.3-4.3 1.5-25.7 1.5h-25.1l.6 2.2c2.8 9.6 3.3 37.4.9 44.6-.9 2.3-1.4 4.4-1.2 4.5s5.2.1 11.1-.1l10.6-.3-.9-3.2c-.5-1.8-.9-6-.9-9.4V611h9.6c7.2 0 9.9.4 11.1 1.5 2.5 2.6 3.3.7 3.3-7.7 0-7.9 0-8-2.2-7.2-1.3.4-6.7.9-12 1.1l-9.8.4v-9.2l14.6.3c12.6.3 14.7.5 15.5 2 2.1 3.7 2.9 1.5 2.9-7.2 0-8.3-.9-11.2-2.4-7.5M943 577.5c0 1.3-3.6 1.5-26.5 1.5-27.8 0-28.5.1-24.7 4.3 1.5 1.7 1.7 4.2 1.7 19.6 0 14.5-.3 18.4-1.7 21.9-1 2.3-1.8 4.6-1.8 5s11.2.6 24.9.5c14.4-.2 26.1.1 27.5.7l2.6 1v-17.2l-2.5 1.6c-2 1.3-5.3 1.6-17.5 1.6h-15v-9h9.9c5.6 0 10.3.4 10.6 1 .3.5 1.3 1 2.1 1 1.1 0 1.4-1.7 1.4-8.1 0-7.4-.2-8-1.7-7.4-4.8 2.1-13.5 3.7-16.7 3.1-4-.8-7-4.3-6-7 .6-1.6 2.3-1.7 16.7-1.4 11.7.2 16.1.6 16.5 1.5.2.7.8 1.3 1.3 1.3s.9-3.8.9-8.5c0-5-.4-8.5-1-8.5-.5 0-1 .7-1 1.5M362 577.8c-6.5.9-15.1 4.6-19.3 8.2-5.5 4.9-7.8 10.4-7.8 18.7 0 20.3 22.8 31 49 22.9 4.7-1.4 9.5-2.6 10.8-2.6 3 0 2.9-1.3-.3-6.9-3.9-6.7-7.3-11.1-8.7-11.1-.7 0-1.8 1.2-2.4 2.8-2 4.4-6.8 6.7-14.3 6.7-14.4 0-22.5-10.6-14.6-19.4 3.1-3.5 7.8-5.1 14.6-5.1 7 0 12.3 1.9 14 4.9 2 3.8 3.7 2.3 6.9-6 1.7-4.4 3.1-8.5 3.1-9s-1.6-.9-3.6-.9-6.2-.6-9.3-1.4c-6-1.6-14.1-2.4-18.1-1.8M78 579.8c0 .4.9 1.5 2 2.5 1.9 1.6 2 2.8 1.7 22.3-.2 18.4-.4 20.6-1.9 21.5-1 .6-1.8 1.8-1.8 2.7 0 1.5 1.4 1.7 12 1.7 10.8 0 12-.2 12-1.8 0-.9-.7-1.7-1.5-1.7-1.6 0-1.8-4.5-2-33.3 0-9.3.2-11 1.8-11.8 3.8-2.2 1.3-2.9-10.3-2.9-6.6 0-12 .3-12 .8M114 580.4c0 .7.8 1.6 1.9 1.9 1.7.4 1.9 1.8 2.2 14.3.6 23.1.4 27.2-1.5 29.2-.9 1-1.6 2.1-1.6 2.4 0 .7 13.4 2.3 16.9 2 3.3-.2 3.6-.7 2.3-5.1-1.4-4.5-1.6-24.1-.3-24.1 1.1 0 20.6 20.3 22 22.9.7 1.3.8 2.2.1 2.6-.5.3-1 1.3-1 2.1 0 1.1 2.1 1.4 10.9 1.4 11.1 0 14-.9 10.6-3.3-1.4-1.1-1.7-4.3-2.2-22.4-.5-20.8-.5-21.1 1.6-22.2 4.4-2.4 2.1-3.2-8.6-2.9-7.4.2-10.8.7-11.1 1.5-.2.7.3 1.3 1.2 1.3 1.4 0 1.6 1.6 1.6 10.2v10.2l-7.1-6.9c-7.4-7.3-9.9-11-9.9-14.5 0-1.9-.6-2-14-2-11.3 0-14 .3-14 1.4M206.8 582.3c.2 2-.7 6-2.6 10.7-3.1 7.7-13.7 29.8-16.2 33.7-.8 1.2-1.1 2.5-.8 2.9 1.3 1.2 13.4 1.7 15.5.6 1.2-.7 2.3-2.6 2.7-4.7.4-1.9 1.5-3.9 2.4-4.4s6-.9 11.3-1c8.3-.2 9.9.1 12.2 1.9 1.8 1.4 2.7 3.1 2.7 5v2.8l9.5.1c8.3.1 9.5-.1 9.5-1.6 0-.9-.6-2.4-1.4-3.2-4.6-5.5-20.9-40.5-20.3-43.7l.4-2.4h-25.3zm16.8 20.3c1.9 4 3.4 7.5 3.4 7.8s-3.4.6-7.5.6c-4.7 0-7.5-.4-7.5-1.1 0-2.6 6.3-15.8 7.2-15.3.6.4 2.6 4 4.4 8M265.4 582.2c2.6 12.3 3 39.3.7 43.7-2.2 4-1 4.6 9 4.4 8.8-.2 12.4-1.4 8.5-2.9-1.4-.5-1.6-2.7-1.5-14.3v-13.6l12.5 13c9.8 10.2 12.1 13.1 10.9 13.8-1.8 1-2 3.7-.2 3.8 2.1.1 19.1.1 20.5 0 1.6-.1 1.5-2.1-.3-3.5-1.1-.9-1.6-5.5-2.1-21.7-.7-20.3-.6-20.7 1.5-22.5 1.1-1 2.1-2.2 2.1-2.6 0-.5-4.9-.8-11-.8-9.1 0-11 .3-11 1.5 0 .8.6 1.5 1.4 1.5s1.7.8 2.1 1.9c.7 2.2.2 17.1-.5 17.1-.3 0-4-3.5-8.2-7.8-5.6-5.6-7.8-8.5-8-10.7l-.3-3-13.4-.3-13.4-.3zM407 580.5c0 .8.6 1.5 1.4 1.5 1.6 0 2.3 9.2 2.2 30.8-.1 10.7-.3 12.5-1.8 13.3-1 .6-1.8 1.8-1.8 2.7 0 1.6 1.2 1.7 11.3 1.5 14-.3 14.7-.6 11.6-3.9-2.4-2.5-2.4-2.8-2.4-22.4 0-17.4.2-20 1.8-21.7.9-1.1 1.7-2.3 1.7-2.6 0-.4-5.4-.7-12-.7-10 0-12 .2-12 1.5M460.2 582c-.1 4.8-1.8 9.2-10.8 28.2-4.6 9.8-8.4 18.3-8.4 19.1 0 .9 1.9 1.2 7.8.9 8.8-.4 10.6-.8 9.7-2.2-.4-.6-.1-2.6.5-4.5l1.2-3.5H472c12.5 0 15 .8 15 5 0 4.6.7 5 10.6 5 5.7 0 9.4-.4 9.4-1s-4.9-10.9-11-23c-6-12.1-11-23.1-11-24.5V579h-24.7zm16.6 19.1c1.8 4.4 3.2 8.4 3.2 9 0 .5-3.4.9-7.5.9-4.3 0-7.5-.4-7.5-1 0-.5 1.3-3.8 2.9-7.2 1.6-3.5 3.1-7.1 3.4-8.1 1.1-3.2 2.4-1.8 5.5 6.4M517 580c0 .5.9 1.4 2 2 1.9 1 2 2.1 2 21.5s-.1 20.6-2.1 22.6c-1.1 1.1-1.8 2.3-1.6 2.6.3.2 11 .5 23.8.5 18.1 0 24 .3 26.1 1.4 1.5.8 2.9 1.4 3.3 1.4.3 0 .5-4.1.5-9 0-7.2-.3-9-1.5-9-.8 0-1.9.9-2.5 2-1 1.9-2.1 2-15.5 2H537v-17.9c0-15.3.2-18 1.6-18.5.8-.3 1.2-1 .9-1.6-.8-1.3-22.5-1.3-22.5 0M728 579.8c0 .4.9 1.3 2.1 2 2 1.3 2.1 1.8 1.6 22.9-.3 13.8-.9 21.9-1.6 22.6-.6.6-1.1 1.3-1.1 1.6 0 .4 10.3.5 22.9.3 19.9-.3 23.3-.1 26.1 1.3q3.3 1.65 3.9.6c.5-.8.6-12.2.2-16.4-.2-1.5-3.1-.6-4.1 1.3s-2.1 2-15.5 2H748v-17.9c0-15.3.2-18 1.6-18.5.8-.3 1.2-1 .9-1.6-.7-1.2-22.5-1.4-22.5-.2M790 579.6c0 .4 1.1 1.7 2.5 3l2.6 2.4-.2 17.2c-.2 20.9-.5 23.9-3.1 24.6-3.5.9-1.2 2.7 3.3 2.6 2.4-.1 7.5.3 11.3.8 7.9 1 9.9-.1 6.5-3.8-2.2-2.4-2.5-6.8-2-30.3.3-12.1.5-13.4 2.2-13.8 1-.3 1.9-1.2 1.9-1.9 0-1.1-2.5-1.4-12.5-1.4-6.9 0-12.5.3-12.5.6M691.8 664c-11 1.9-14.8 4.8-36.2 26.3-31.5 31.8-56.6 51.1-104.1 79.9-23 13.9-53.5 30.5-60.5 32.8-7.7 2.6-19.2 2.4-27.5-.5-10.1-3.4-41.8-20.3-64-34-40.6-25.1-70.6-48.5-101.5-79.4-20.4-20.4-23.1-22.2-35.9-24.2-9.5-1.4-34.6-.7-38.3 1.1-2 .9-2.8 2.1-2.8 3.9 0 3.4 1.3 5.2 14 19.6 5.8 6.6 14.9 17.2 20.2 23.5 12.2 14.6 21.5 23.9 39.1 39.3 20.2 17.6 31.6 26.3 52.7 40.2 32.6 21.4 43.7 27.6 89.4 49.4 39 18.7 43.7 18.7 81.1-.3 55.6-28.3 107-61 143.7-91.3 12.2-10.1 40.2-38.1 51.2-51.3 13.3-16 18.8-24.5 18.4-28.9-.5-5.5-3.5-6.5-20.3-6.7-7.7-.2-16.1.1-18.7.6"/></svg>