<svg width="96" height="96" viewBox="0 0 96 96" fill="none" xmlns="http://www.w3.org/2000/svg">
  <rect x="8" y="8" width="80" height="80" rx="24" fill="#F8FAFC"/>
  <path d="M29 55C29 49.477 33.477 45 39 45H45V59H39C33.477 59 29 54.523 29 49V55Z" fill="white" stroke="#1A62DB" stroke-width="4" stroke-linejoin="round"/>
  <path d="M67 55C67 49.477 62.523 45 57 45H51V59H57C62.523 59 67 54.523 67 49V55Z" fill="white" stroke="#1A62DB" stroke-width="4" stroke-linejoin="round"/>
  <path d="M45 49C45 45.134 48.134 42 52 42H56" stroke="#1A62DB" stroke-width="4" stroke-linecap="round"/>
  <path d="M51 59H47C44.791 59 43 57.209 43 55V49C43 46.791 44.791 45 47 45H51V59Z" fill="#EFF8FF" stroke="#1A62DB" stroke-width="4" stroke-linejoin="round"/>
</svg>